<svg class="svg-icon" style="width: 1em; height: 1em;vertical-align: middle;overflow: hidden;" viewBox="0 0 1024 1024" version="1.1" xmlns="http://www.w3.org/2000/svg">
<path d="M544 480h224.224c17.536 0 31.776 14.208 31.776 32 0 17.664-14.24 32-31.776 32H544v224.224A31.808 31.808 0 0 1 512 800c-17.664 0-32-14.24-32-31.776V544H255.776A31.808 31.808 0 0 1 224 512c0-17.664 14.24-32 31.776-32H480V255.776A31.808 31.808 0 0 1 512 224c17.664 0 32 14.24 32 31.776V480zM64 127.712C64 92.512 92.8 64 127.712 64H896.32C931.488 64 960 92.8 960 127.712V896.32c0 35.2-28.8 63.712-63.712 63.712H127.68C92.512 960 64 931.2 64 896.288V127.68z m64 32.32v703.936A32 32 0 0 0 160 896h704a32 32 0 0 0 32-32V160a32 32 0 0 0-32-32H160a32 32 0 0 0-32 32z"/>
</svg>
