<svg class="svg-icon" style="width: 1em; height: 1em;vertical-align: middle;overflow: hidden;" viewBox="0 0 1024 1024" version="1.1" xmlns="http://www.w3.org/2000/svg">
<path d="M786.1248 877.8752l-102.4-102.4c-9.984-9.984-26.2144-9.984-36.1984 0s-9.984 26.2144 0 36.1984l58.6752 58.6752-475.8016 0c-14.1312 0-25.6 11.4688-25.6 25.6s11.4688 25.6 25.6 25.6l475.8016 0-58.6752 58.6752c-9.984 9.984-9.984 26.2144 0 36.1984 5.0176 5.0176 11.5712 7.4752 18.1248 7.4752s13.1072-2.5088 18.1248-7.4752l102.4-102.4c9.984-9.984 9.984-26.2144 0-36.1984z"  />
<path d="M793.6 51.2l-435.2 0c-112.9472 0-204.8 91.8528-204.8 204.8s91.8528 204.8 204.8 204.8l51.2 0 0 230.4c0 14.1312 11.4688 25.6 25.6 25.6s25.6-11.4688 25.6-25.6l0-588.8 153.6 0 0 588.8c0 14.1312 11.4688 25.6 25.6 25.6s25.6-11.4688 25.6-25.6l0-588.8 128 0c14.1312 0 25.6-11.4688 25.6-25.6s-11.4688-25.6-25.6-25.6zM409.6 409.6l-51.2 0c-84.6848 0-153.6-68.9152-153.6-153.6s68.9152-153.6 153.6-153.6l51.2 0 0 307.2z"  />
</svg>