<svg class="svg-icon" style="width: 1em; height: 1em;vertical-align: middle;;overflow: hidden;" viewBox="0 0 1024 1024" version="1.1" xmlns="http://www.w3.org/2000/svg">
<path d="M793.575644 51.195572H358.413285C245.475854 51.195572 153.630999 143.040427 153.630999 255.977858s91.844855 204.782286 204.782286 204.782286h51.195572v230.380072a25.597786 25.597786 0 0 0 51.195571 0V102.391143h153.586715v588.749073a25.597786 25.597786 0 0 0 51.195572 0V102.391143h127.988929a25.597786 25.597786 0 0 0 0-51.195571zM409.608857 409.564573H358.413285C273.73581 409.564573 204.826571 340.655333 204.826571 255.977858s68.909239-153.586715 153.586714-153.586715h51.195572v307.17343zM742.380072 870.324717H266.619625l58.670125-58.670125a25.597786 25.597786 0 0 0-36.195269-36.195269l-102.391143 102.391143a25.597786 25.597786 0 0 0 0 36.195269l102.391143 102.391143a25.495395 25.495395 0 0 0 36.246465 0 25.597786 25.597786 0 0 0 0-36.195269l-58.670125-58.670125h475.760447a25.597786 25.597786 0 0 0 0-51.195572z"/>
</svg>